<svg width="16" height="17" viewBox="0 0 16 17" fill="none" xmlns="http://www.w3.org/2000/svg">
<g clip-path="url(#clip0_39_2350)">
<path fill-rule="evenodd" clip-rule="evenodd" d="M0.533333 0.5C0.238782 0.5 0 0.738782 0 1.03333V15.9667C0 16.2612 0.238782 16.5 0.533333 16.5H4.8C5.09455 16.5 5.33333 16.2612 5.33333 15.9667V5.83333H15.4667C15.7612 5.83333 16 5.59455 16 5.3V1.03333C16 0.738782 15.7612 0.5 15.4667 0.5H0.533333ZM1.06667 4.84672V1.56667H4.34669L4.34672 4.84674L1.06667 4.84672ZM1.06666 5.75339L1.06667 15.4333H4.26667V14.2867H2.93335C2.68299 14.2867 2.48002 14.0838 2.48002 13.8333C2.48002 13.583 2.68299 13.38 2.93335 13.38H4.26667V12.1533H2.40002C2.14965 12.1533 1.94669 11.9503 1.94669 11.7C1.94669 11.4497 2.14965 11.2467 2.40002 11.2467H4.26667V10.02L2.93335 10.02C2.68299 10.02 2.48002 9.81706 2.48002 9.56669C2.48003 9.31631 2.683 9.11335 2.93337 9.11335L4.26667 9.11338V7.88669L2.93332 7.88667C2.68295 7.88667 2.48 7.6837 2.48 7.43333C2.48 7.18297 2.68298 6.98 2.93334 6.98L4.26667 6.98002V5.75341L1.06666 5.75339ZM5.25339 4.76667H6.48V3.4334C6.48 3.18303 6.68297 2.98006 6.93333 2.98006C7.1837 2.98006 7.38667 3.18303 7.38667 3.4334V4.76667H8.61335V3.43339C8.61335 3.18302 8.81632 2.98005 9.06669 2.98005C9.31706 2.98005 9.52002 3.18302 9.52002 3.43339V4.76667H10.7468V2.90005C10.7468 2.64969 10.9497 2.44672 11.2001 2.44672C11.4505 2.44672 11.6534 2.64969 11.6534 2.90005V4.76667H12.8801V3.43339C12.8801 3.18302 13.0831 2.98005 13.3334 2.98005C13.5838 2.98005 13.7868 3.18302 13.7868 3.43339V4.76667H14.9333V1.56667H5.25336L5.25339 4.76667Z" fill="#2D323A"/>
</g>
<defs>
<clipPath id="clip0_39_2350">
<rect width="16" height="16" fill="white" transform="translate(0 0.5)"/>
</clipPath>
</defs>
</svg>
